<mxfile host="app.diagrams.net" modified="2022-02-04T04:23:38.330Z" agent="5.0 (Macintosh; Intel Mac OS X 10_15_7) AppleWebKit/537.36 (KHTML, like Gecko) Chrome/97.0.4692.99 Safari/537.36" etag="_1l2w3ZTA2KMyVmOtD-D" version="16.5.3" type="github">
  <diagram id="iumH0GrNvzVNAClOy_bx" name="architecture">
    <mxGraphModel dx="946" dy="557" grid="1" gridSize="10" guides="1" tooltips="1" connect="1" arrows="1" fold="1" page="1" pageScale="1" pageWidth="850" pageHeight="1100" math="0" shadow="0">
      <root>
        <mxCell id="0" />
        <mxCell id="1" parent="0" />
        <mxCell id="eRT8c7Alo3fMT1XNr6lS-1" value="Account Service" style="text;html=1;strokeColor=none;fillColor=none;align=center;verticalAlign=middle;whiteSpace=wrap;rounded=0;" vertex="1" parent="1">
          <mxGeometry x="680" y="530" width="90" height="30" as="geometry" />
        </mxCell>
        <mxCell id="eRT8c7Alo3fMT1XNr6lS-2" value="Wallet Service" style="text;html=1;strokeColor=none;fillColor=none;align=center;verticalAlign=middle;whiteSpace=wrap;rounded=0;" vertex="1" parent="1">
          <mxGeometry x="675" y="560" width="90" height="30" as="geometry" />
        </mxCell>
        <mxCell id="eRT8c7Alo3fMT1XNr6lS-3" value="Payment Service" style="text;html=1;strokeColor=none;fillColor=none;align=center;verticalAlign=middle;whiteSpace=wrap;rounded=0;" vertex="1" parent="1">
          <mxGeometry x="675" y="590" width="110" height="30" as="geometry" />
        </mxCell>
        <mxCell id="eRT8c7Alo3fMT1XNr6lS-4" value="FX Rate Service" style="text;html=1;strokeColor=none;fillColor=none;align=center;verticalAlign=middle;whiteSpace=wrap;rounded=0;" vertex="1" parent="1">
          <mxGeometry x="655" y="620" width="140" height="30" as="geometry" />
        </mxCell>
        <mxCell id="eRT8c7Alo3fMT1XNr6lS-5" value="Core Service" style="text;html=1;strokeColor=none;fillColor=none;align=center;verticalAlign=middle;whiteSpace=wrap;rounded=0;" vertex="1" parent="1">
          <mxGeometry x="650" y="640" width="140" height="30" as="geometry" />
        </mxCell>
      </root>
    </mxGraphModel>
  </diagram>
</mxfile>
